<svg xmlns="http://www.w3.org/2000/svg" viewBox="0 0 1200 630" width="1200" height="630">
  <defs>
    <linearGradient id="g1" x1="0%" y1="0%" x2="100%" y2="100%">
      <stop offset="0%" style="stop-color:#0f1923"/>
      <stop offset="100%" style="stop-color:#162435"/>
    </linearGradient>
  </defs>
  <rect width="1200" height="630" fill="url(#g1)"/>
  <path d="M0,400 Q200,150 500,300 Q800,450 1200,200" fill="none" stroke="#5b9bd5" stroke-width="3" opacity="0.6"/>
  <path d="M0,450 Q250,200 550,350 Q850,500 1200,250" fill="none" stroke="#5b9bd5" stroke-width="2" opacity="0.4"/>
  <path d="M0,350 Q150,180 450,280 Q750,400 1200,180" fill="none" stroke="#3a7cc3" stroke-width="1.5" opacity="0.3"/>
  <circle cx="250" cy="230" r="6" fill="#5b9bd5" opacity="0.7"/>
  <circle cx="500" cy="300" r="10" fill="#5b9bd5" opacity="0.5"/>
  <circle cx="500" cy="300" r="20" fill="#5b9bd5" opacity="0.15"/>
  <circle cx="750" cy="420" r="6" fill="#5b9bd5" opacity="0.6"/>
  <circle cx="1000" cy="230" r="5" fill="#5b9bd5" opacity="0.5"/>
  <circle cx="150" cy="350" r="3" fill="#5b9bd5" opacity="0.4"/>
  <circle cx="400" cy="200" r="3" fill="#5b9bd5" opacity="0.35"/>
  <circle cx="650" cy="350" r="4" fill="#5b9bd5" opacity="0.4"/>
  <circle cx="900" cy="300" r="3" fill="#5b9bd5" opacity="0.35"/>
  <circle cx="1100" cy="280" r="3" fill="#5b9bd5" opacity="0.3"/>
  <line x1="300" y1="0" x2="300" y2="630" stroke="#5b9bd5" stroke-width="0.5" opacity="0.06"/>
  <line x1="600" y1="0" x2="600" y2="630" stroke="#5b9bd5" stroke-width="0.5" opacity="0.06"/>
  <line x1="900" y1="0" x2="900" y2="630" stroke="#5b9bd5" stroke-width="0.5" opacity="0.06"/>
  <line x1="0" y1="210" x2="1200" y2="210" stroke="#5b9bd5" stroke-width="0.5" opacity="0.06"/>
  <line x1="0" y1="420" x2="1200" y2="420" stroke="#5b9bd5" stroke-width="0.5" opacity="0.06"/>
</svg>