<svg xmlns="http://www.w3.org/2000/svg" viewBox="0 0 1200 630" width="1200" height="630"><defs><linearGradient id="g" x1="0%" y1="0%" x2="100%" y2="100%"><stop offset="0%" style="stop-color:#152540"/><stop offset="100%" style="stop-color:#1e3555"/></linearGradient></defs><rect width="1200" height="630" fill="url(#g)"/><path d="M0,400 Q200,150 500,300 Q800,450 1200,200" fill="none" stroke="#6db0e8" stroke-width="4" opacity="0.7"/><path d="M0,450 Q250,200 550,350 Q850,500 1200,250" fill="none" stroke="#6db0e8" stroke-width="3" opacity="0.5"/><path d="M0,350 Q150,180 450,280 Q750,400 1200,180" fill="none" stroke="#4a90c9" stroke-width="2" opacity="0.4"/><circle cx="250" cy="230" r="8" fill="#7ec0f5" opacity="0.8"/><circle cx="500" cy="300" r="14" fill="#7ec0f5" opacity="0.6"/><circle cx="500" cy="300" r="30" fill="#7ec0f5" opacity="0.12"/><circle cx="750" cy="420" r="8" fill="#7ec0f5" opacity="0.7"/><circle cx="1000" cy="230" r="7" fill="#7ec0f5" opacity="0.6"/><circle cx="150" cy="350" r="4" fill="#7ec0f5" opacity="0.5"/><circle cx="400" cy="200" r="4" fill="#7ec0f5" opacity="0.45"/><circle cx="650" cy="350" r="5" fill="#7ec0f5" opacity="0.5"/><circle cx="900" cy="300" r="4" fill="#7ec0f5" opacity="0.45"/><circle cx="1100" cy="280" r="4" fill="#7ec0f5" opacity="0.4"/></svg>