<svg xmlns="http://www.w3.org/2000/svg" viewBox="0 0 1200 630" width="1200" height="630">
  <defs>
    <linearGradient id="bg" x1="0%" y1="0%" x2="100%" y2="100%">
      <stop offset="0%" stop-color="#0e1c2f"/>
      <stop offset="100%" stop-color="#172b45"/>
    </linearGradient>

    <radialGradient id="haloBlue" cx="50%" cy="50%" r="50%">
      <stop offset="0%" stop-color="#5b9bd5" stop-opacity="0.85"/>
      <stop offset="25%" stop-color="#5b9bd5" stop-opacity="0.45"/>
      <stop offset="60%" stop-color="#5b9bd5" stop-opacity="0.15"/>
      <stop offset="100%" stop-color="#5b9bd5" stop-opacity="0"/>
    </radialGradient>

    <radialGradient id="haloBlueSmall" cx="50%" cy="50%" r="50%">
      <stop offset="0%" stop-color="#5b9bd5" stop-opacity="0.6"/>
      <stop offset="40%" stop-color="#5b9bd5" stop-opacity="0.2"/>
      <stop offset="100%" stop-color="#5b9bd5" stop-opacity="0"/>
    </radialGradient>

    <radialGradient id="haloAmber" cx="50%" cy="50%" r="50%">
      <stop offset="0%" stop-color="#f5b041" stop-opacity="0.9"/>
      <stop offset="20%" stop-color="#f5b041" stop-opacity="0.55"/>
      <stop offset="55%" stop-color="#f5b041" stop-opacity="0.18"/>
      <stop offset="100%" stop-color="#f5b041" stop-opacity="0"/>
    </radialGradient>

    <radialGradient id="haloCyan" cx="50%" cy="50%" r="50%">
      <stop offset="0%" stop-color="#7ed4e6" stop-opacity="0.75"/>
      <stop offset="35%" stop-color="#7ed4e6" stop-opacity="0.25"/>
      <stop offset="100%" stop-color="#7ed4e6" stop-opacity="0"/>
    </radialGradient>
  </defs>

  <rect width="1200" height="630" fill="url(#bg)"/>

  <g stroke="#5b9bd5" stroke-width="0.4" stroke-opacity="0.2" fill="none">
    <line x1="180" y1="200" x2="420" y2="140"/>
    <line x1="420" y1="140" x2="620" y2="250"/>
    <line x1="620" y1="250" x2="820" y2="170"/>
    <line x1="820" y1="170" x2="1020" y2="280"/>
    <line x1="180" y1="200" x2="340" y2="380"/>
    <line x1="340" y1="380" x2="540" y2="460"/>
    <line x1="540" y1="460" x2="740" y2="400"/>
    <line x1="740" y1="400" x2="940" y2="490"/>
    <line x1="940" y1="490" x2="1020" y2="280"/>
    <line x1="420" y1="140" x2="540" y2="460"/>
    <line x1="620" y1="250" x2="740" y2="400"/>
    <line x1="820" y1="170" x2="940" y2="490"/>
    <line x1="340" y1="380" x2="620" y2="250"/>
  </g>

  <g stroke="#f5b041" stroke-width="0.6" stroke-opacity="0.28" stroke-dasharray="3,5" fill="none">
    <line x1="870" y1="350" x2="290" y2="220"/>
    <line x1="870" y1="350" x2="130" y2="460"/>
  </g>

  <g>
    <circle cx="420" cy="140" r="85" fill="url(#haloBlue)"/>
    <circle cx="420" cy="140" r="5.5" fill="#a8ccec" opacity="0.95"/>

    <circle cx="820" cy="170" r="80" fill="url(#haloBlue)"/>
    <circle cx="820" cy="170" r="5" fill="#a8ccec" opacity="0.95"/>

    <circle cx="540" cy="460" r="90" fill="url(#haloBlue)"/>
    <circle cx="540" cy="460" r="5.5" fill="#a8ccec" opacity="0.95"/>

    <circle cx="180" cy="200" r="50" fill="url(#haloBlueSmall)"/>
    <circle cx="180" cy="200" r="3.5" fill="#8bb8e0" opacity="0.8"/>

    <circle cx="620" cy="250" r="50" fill="url(#haloBlueSmall)"/>
    <circle cx="620" cy="250" r="3.5" fill="#8bb8e0" opacity="0.8"/>

    <circle cx="1020" cy="280" r="50" fill="url(#haloBlueSmall)"/>
    <circle cx="1020" cy="280" r="3.5" fill="#8bb8e0" opacity="0.8"/>

    <circle cx="340" cy="380" r="50" fill="url(#haloBlueSmall)"/>
    <circle cx="340" cy="380" r="3.5" fill="#8bb8e0" opacity="0.8"/>

    <circle cx="740" cy="400" r="50" fill="url(#haloBlueSmall)"/>
    <circle cx="740" cy="400" r="3.5" fill="#8bb8e0" opacity="0.8"/>

    <circle cx="940" cy="490" r="50" fill="url(#haloBlueSmall)"/>
    <circle cx="940" cy="490" r="3.5" fill="#8bb8e0" opacity="0.8"/>
  </g>

  <g>
    <circle cx="870" cy="350" r="110" fill="url(#haloAmber)"/>
    <circle cx="870" cy="350" r="6" fill="#fad588" opacity="0.98"/>

    <circle cx="290" cy="220" r="75" fill="url(#haloAmber)"/>
    <circle cx="290" cy="220" r="4.5" fill="#fad588" opacity="0.95"/>

    <circle cx="130" cy="460" r="65" fill="url(#haloCyan)"/>
    <circle cx="130" cy="460" r="4" fill="#b8e8f2" opacity="0.9"/>
  </g>

  <g opacity="0.35">
    <circle cx="90" cy="80" r="2" fill="#5b9bd5"/>
    <circle cx="1130" cy="120" r="2" fill="#5b9bd5"/>
    <circle cx="1140" cy="580" r="2" fill="#5b9bd5"/>
    <circle cx="60" cy="560" r="2.5" fill="#f5b041"/>
    <circle cx="1060" cy="60" r="1.5" fill="#7ed4e6"/>
  </g>
</svg>
