<svg xmlns="http://www.w3.org/2000/svg" viewBox="0 0 1200 630"><defs><radialGradient id="bg" cx="55%" cy="50%" r="60%"><stop offset="0%" stop-color="#1a4a7a" stop-opacity="0.8"/><stop offset="100%" stop-color="#0e1c2f" stop-opacity="0"/></radialGradient></defs><rect width="1200" height="630" fill="#0e1c2f"/><rect width="1200" height="630" fill="url(#bg)"/><line x1="400" y1="230" x2="700" y2="200" stroke="#3d8edb" stroke-width="1.8" stroke-opacity="0.45"/><line x1="700" y1="200" x2="900" y2="370" stroke="#3d8edb" stroke-width="1.5" stroke-opacity="0.38"/><line x1="400" y1="230" x2="500" y2="430" stroke="#3d8edb" stroke-width="1.3" stroke-opacity="0.28"/><line x1="500" y1="430" x2="900" y2="370" stroke="#3d8edb" stroke-width="1.2" stroke-opacity="0.22"/><circle cx="400" cy="230" r="44" fill="none" stroke="#3d8edb" stroke-width="0.8" stroke-opacity="0.18"/><circle cx="400" cy="230" r="26" fill="none" stroke="#3d8edb" stroke-width="1" stroke-opacity="0.26"/><circle cx="400" cy="230" r="12" fill="#0e1c2f" stroke="#3d8edb" stroke-width="2.5" stroke-opacity="0.82"/><circle cx="400" cy="230" r="6" fill="#3d8edb" fill-opacity="0.95"/><circle cx="700" cy="200" r="34" fill="none" stroke="#3d8edb" stroke-width="0.7" stroke-opacity="0.15"/><circle cx="700" cy="200" r="20" fill="none" stroke="#3d8edb" stroke-width="0.9" stroke-opacity="0.22"/><circle cx="700" cy="200" r="10" fill="#0e1c2f" stroke="#3d8edb" stroke-width="2.2" stroke-opacity="0.75"/><circle cx="700" cy="200" r="5" fill="#3d8edb" fill-opacity="0.88"/><circle cx="900" cy="370" r="30" fill="none" stroke="#3d8edb" stroke-width="0.6" stroke-opacity="0.13"/><circle cx="900" cy="370" r="18" fill="none" stroke="#3d8edb" stroke-width="0.8" stroke-opacity="0.2"/><circle cx="900" cy="370" r="9" fill="#0e1c2f" stroke="#3d8edb" stroke-width="2" stroke-opacity="0.7"/><circle cx="900" cy="370" r="4.5" fill="#3d8edb" fill-opacity="0.85"/><circle cx="500" cy="430" r="26" fill="none" stroke="#3d8edb" stroke-width="0.6" stroke-opacity="0.12"/><circle cx="500" cy="430" r="16" fill="none" stroke="#3d8edb" stroke-width="0.8" stroke-opacity="0.18"/><circle cx="500" cy="430" r="8" fill="#0e1c2f" stroke="#3d8edb" stroke-width="1.8" stroke-opacity="0.65"/><circle cx="500" cy="430" r="4" fill="#3d8edb" fill-opacity="0.8"/><circle cx="250" cy="340" r="5" fill="#3d8edb" fill-opacity="0.32"/></svg>