<svg xmlns="http://www.w3.org/2000/svg" viewBox="0 0 1200 630">
<defs><radialGradient id="bg" cx="50%" cy="45%" r="70%"><stop offset="0%" stop-color="#1e3f80" stop-opacity="0.9"/><stop offset="100%" stop-color="#0e1c2f" stop-opacity="0"/></radialGradient></defs>
<rect width="1200" height="630" fill="#0e1c2f"/>
<rect width="1200" height="630" fill="url(#bg)"/>
<line x1="200" y1="220" x2="400" y2="180" stroke="#1e7acc" stroke-width="1" stroke-opacity="0.22"/>
<line x1="200" y1="220" x2="280" y2="390" stroke="#1e7acc" stroke-width="1" stroke-opacity="0.2"/>
<line x1="200" y1="220" x2="580" y2="260" stroke="#1e7acc" stroke-width="0.8" stroke-opacity="0.16"/>
<line x1="400" y1="180" x2="700" y2="160" stroke="#1e7acc" stroke-width="1" stroke-opacity="0.22"/>
<line x1="400" y1="180" x2="580" y2="260" stroke="#1e7acc" stroke-width="0.9" stroke-opacity="0.18"/>
<line x1="400" y1="180" x2="500" y2="390" stroke="#1e7acc" stroke-width="0.8" stroke-opacity="0.16"/>
<line x1="700" y1="160" x2="950" y2="200" stroke="#1e7acc" stroke-width="1" stroke-opacity="0.22"/>
<line x1="700" y1="160" x2="820" y2="360" stroke="#1e7acc" stroke-width="0.9" stroke-opacity="0.18"/>
<line x1="580" y1="260" x2="500" y2="390" stroke="#1e7acc" stroke-width="1" stroke-opacity="0.22"/>
<line x1="580" y1="260" x2="950" y2="200" stroke="#1e7acc" stroke-width="0.8" stroke-opacity="0.16"/>
<line x1="280" y1="390" x2="500" y2="390" stroke="#1e7acc" stroke-width="1" stroke-opacity="0.22"/>
<line x1="280" y1="390" x2="420" y2="510" stroke="#1e7acc" stroke-width="0.9" stroke-opacity="0.18"/>
<line x1="500" y1="390" x2="820" y2="360" stroke="#1e7acc" stroke-width="1" stroke-opacity="0.22"/>
<line x1="820" y1="360" x2="1000" y2="360" stroke="#1e7acc" stroke-width="1" stroke-opacity="0.22"/>
<line x1="820" y1="360" x2="420" y2="510" stroke="#1e7acc" stroke-width="0.8" stroke-opacity="0.16"/>
<line x1="950" y1="200" x2="1000" y2="360" stroke="#1e7acc" stroke-width="1" stroke-opacity="0.22"/>
<line x1="200" y1="220" x2="700" y2="160" stroke="#1e7acc" stroke-width="0.6" stroke-opacity="0.11"/>
<line x1="400" y1="180" x2="820" y2="360" stroke="#1e7acc" stroke-width="0.6" stroke-opacity="0.11"/>
<circle cx="580" cy="260" r="60" fill="none" stroke="#2288e0" stroke-width="0.8" stroke-opacity="0.18"/>
<circle cx="580" cy="260" r="38" fill="none" stroke="#2288e0" stroke-width="1" stroke-opacity="0.24"/>
<circle cx="580" cy="260" r="20" fill="#0a1525" stroke="#1e7acc" stroke-width="3" stroke-opacity="1"/>
<circle cx="580" cy="260" r="10" fill="#2288e0" fill-opacity="1"/>
<circle cx="400" cy="180" r="44" fill="none" stroke="#2288e0" stroke-width="0.8" stroke-opacity="0.16"/>
<circle cx="400" cy="180" r="28" fill="none" stroke="#2288e0" stroke-width="0.9" stroke-opacity="0.22"/>
<circle cx="400" cy="180" r="14" fill="#0a1525" stroke="#1e7acc" stroke-width="2.8" stroke-opacity="0.95"/>
<circle cx="400" cy="180" r="7" fill="#2288e0" fill-opacity="0.98"/>
<circle cx="700" cy="160" r="44" fill="none" stroke="#2288e0" stroke-width="0.8" stroke-opacity="0.16"/>
<circle cx="700" cy="160" r="28" fill="none" stroke="#2288e0" stroke-width="0.9" stroke-opacity="0.22"/>
<circle cx="700" cy="160" r="14" fill="#0a1525" stroke="#1e7acc" stroke-width="2.8" stroke-opacity="0.95"/>
<circle cx="700" cy="160" r="7" fill="#2288e0" fill-opacity="0.98"/>
<circle cx="200" cy="220" r="36" fill="none" stroke="#2288e0" stroke-width="0.7" stroke-opacity="0.14"/>
<circle cx="200" cy="220" r="22" fill="none" stroke="#2288e0" stroke-width="0.8" stroke-opacity="0.2"/>
<circle cx="200" cy="220" r="11" fill="#0a1525" stroke="#1e7acc" stroke-width="2.5" stroke-opacity="0.9"/>
<circle cx="200" cy="220" r="5.5" fill="#2288e0" fill-opacity="0.95"/>
<circle cx="950" cy="200" r="36" fill="none" stroke="#2288e0" stroke-width="0.7" stroke-opacity="0.14"/>
<circle cx="950" cy="200" r="22" fill="none" stroke="#2288e0" stroke-width="0.8" stroke-opacity="0.2"/>
<circle cx="950" cy="200" r="11" fill="#0a1525" stroke="#1e7acc" stroke-width="2.5" stroke-opacity="0.9"/>
<circle cx="950" cy="200" r="5.5" fill="#2288e0" fill-opacity="0.95"/>
<circle cx="500" cy="390" r="38" fill="none" stroke="#2288e0" stroke-width="0.7" stroke-opacity="0.14"/>
<circle cx="500" cy="390" r="24" fill="none" stroke="#2288e0" stroke-width="0.9" stroke-opacity="0.2"/>
<circle cx="500" cy="390" r="12" fill="#0a1525" stroke="#1e7acc" stroke-width="2.6" stroke-opacity="0.92"/>
<circle cx="500" cy="390" r="6" fill="#2288e0" fill-opacity="0.96"/>
<circle cx="280" cy="390" r="32" fill="none" stroke="#2288e0" stroke-width="0.6" stroke-opacity="0.13"/>
<circle cx="280" cy="390" r="20" fill="none" stroke="#2288e0" stroke-width="0.8" stroke-opacity="0.18"/>
<circle cx="280" cy="390" r="10" fill="#0a1525" stroke="#1e7acc" stroke-width="2.3" stroke-opacity="0.88"/>
<circle cx="280" cy="390" r="5" fill="#2288e0" fill-opacity="0.92"/>
<circle cx="820" cy="360" r="36" fill="none" stroke="#2288e0" stroke-width="0.7" stroke-opacity="0.14"/>
<circle cx="820" cy="360" r="22" fill="none" stroke="#2288e0" stroke-width="0.8" stroke-opacity="0.2"/>
<circle cx="820" cy="360" r="11" fill="#0a1525" stroke="#1e7acc" stroke-width="2.4" stroke-opacity="0.9"/>
<circle cx="820" cy="360" r="5.5" fill="#2288e0" fill-opacity="0.94"/>
<circle cx="1000" cy="360" r="30" fill="none" stroke="#2288e0" stroke-width="0.6" stroke-opacity="0.12"/>
<circle cx="1000" cy="360" r="18" fill="none" stroke="#2288e0" stroke-width="0.8" stroke-opacity="0.18"/>
<circle cx="1000" cy="360" r="9" fill="#0a1525" stroke="#1e7acc" stroke-width="2.2" stroke-opacity="0.86"/>
<circle cx="1000" cy="360" r="4.5" fill="#2288e0" fill-opacity="0.9"/>
<circle cx="420" cy="510" r="28" fill="none" stroke="#2288e0" stroke-width="0.6" stroke-opacity="0.12"/>
<circle cx="420" cy="510" r="17" fill="none" stroke="#2288e0" stroke-width="0.7" stroke-opacity="0.17"/>
<circle cx="420" cy="510" r="8.5" fill="#0a1525" stroke="#1e7acc" stroke-width="2" stroke-opacity="0.84"/>
<circle cx="420" cy="510" r="4.2" fill="#2288e0" fill-opacity="0.88"/>
</svg>