<svg xmlns="http://www.w3.org/2000/svg" viewBox="0 0 1200 630"><defs><radialGradient id="bg" cx="45%" cy="55%" r="65%"><stop offset="0%" stop-color="#163a72" stop-opacity="0.85"/><stop offset="100%" stop-color="#0e1c2f" stop-opacity="0"/></radialGradient></defs><rect width="1200" height="630" fill="#0e1c2f"/><rect width="1200" height="630" fill="url(#bg)"/><line x1="260" y1="280" x2="500" y2="240" stroke="#2e86d4" stroke-width="1.8" stroke-opacity="0.52"/><line x1="500" y1="240" x2="740" y2="260" stroke="#2e86d4" stroke-width="1.7" stroke-opacity="0.48"/><line x1="740" y1="260" x2="940" y2="360" stroke="#2e86d4" stroke-width="1.5" stroke-opacity="0.44"/><line x1="500" y1="240" x2="560" y2="430" stroke="#2e86d4" stroke-width="1.4" stroke-opacity="0.38"/><line x1="260" y1="280" x2="310" y2="450" stroke="#2e86d4" stroke-width="1.3" stroke-opacity="0.35"/><line x1="310" y1="450" x2="560" y2="430" stroke="#2e86d4" stroke-width="1.4" stroke-opacity="0.38"/><line x1="560" y1="430" x2="940" y2="360" stroke="#2e86d4" stroke-width="1.3" stroke-opacity="0.35"/><line x1="260" y1="280" x2="560" y2="430" stroke="#2e86d4" stroke-width="0.8" stroke-opacity="0.18"/><line x1="740" y1="260" x2="900" y2="145" stroke="#2e86d4" stroke-width="1" stroke-opacity="0.28"/><circle cx="500" cy="240" r="50" fill="none" stroke="#2e86d4" stroke-width="0.8" stroke-opacity="0.18"/><circle cx="500" cy="240" r="30" fill="none" stroke="#2e86d4" stroke-width="1" stroke-opacity="0.26"/><circle cx="500" cy="240" r="14" fill="#0e1c2f" stroke="#2e86d4" stroke-width="2.8" stroke-opacity="0.88"/><circle cx="500" cy="240" r="7" fill="#2e86d4" fill-opacity="1"/><circle cx="260" cy="280" r="38" fill="none" stroke="#2e86d4" stroke-width="0.7" stroke-opacity="0.15"/><circle cx="260" cy="280" r="22" fill="none" stroke="#2e86d4" stroke-width="0.9" stroke-opacity="0.22"/><circle cx="260" cy="280" r="11" fill="#0e1c2f" stroke="#2e86d4" stroke-width="2.4" stroke-opacity="0.82"/><circle cx="260" cy="280" r="5.5" fill="#2e86d4" fill-opacity="0.95"/><circle cx="740" cy="260" r="38" fill="none" stroke="#2e86d4" stroke-width="0.7" stroke-opacity="0.15"/><circle cx="740" cy="260" r="22" fill="none" stroke="#2e86d4" stroke-width="0.9" stroke-opacity="0.22"/><circle cx="740" cy="260" r="11" fill="#0e1c2f" stroke="#2e86d4" stroke-width="2.4" stroke-opacity="0.82"/><circle cx="740" cy="260" r="5.5" fill="#2e86d4" fill-opacity="0.95"/><circle cx="940" cy="360" r="34" fill="none" stroke="#2e86d4" stroke-width="0.7" stroke-opacity="0.14"/><circle cx="940" cy="360" r="20" fill="none" stroke="#2e86d4" stroke-width="0.8" stroke-opacity="0.2"/><circle cx="940" cy="360" r="10" fill="#0e1c2f" stroke="#2e86d4" stroke-width="2.2" stroke-opacity="0.78"/><circle cx="940" cy="360" r="5" fill="#2e86d4" fill-opacity="0.9"/><circle cx="560" cy="430" r="32" fill="none" stroke="#2e86d4" stroke-width="0.6" stroke-opacity="0.13"/><circle cx="560" cy="430" r="19" fill="none" stroke="#2e86d4" stroke-width="0.8" stroke-opacity="0.2"/><circle cx="560" cy="430" r="9.5" fill="#0e1c2f" stroke="#2e86d4" stroke-width="2.1" stroke-opacity="0.76"/><circle cx="560" cy="430" r="4.8" fill="#2e86d4" fill-opacity="0.88"/><circle cx="310" cy="450" r="28" fill="none" stroke="#2e86d4" stroke-width="0.6" stroke-opacity="0.12"/><circle cx="310" cy="450" r="17" fill="none" stroke="#2e86d4" stroke-width="0.8" stroke-opacity="0.18"/><circle cx="310" cy="450" r="8.5" fill="#0e1c2f" stroke="#2e86d4" stroke-width="2" stroke-opacity="0.72"/><circle cx="310" cy="450" r="4.3" fill="#2e86d4" fill-opacity="0.85"/></svg>