<svg xmlns="http://www.w3.org/2000/svg" viewBox="0 0 1200 630" width="1200" height="630"><defs><linearGradient id="g" x1="0%" y1="0%" x2="100%" y2="100%"><stop offset="0%" style="stop-color:#152540"/><stop offset="100%" style="stop-color:#1e3555"/></linearGradient></defs><rect width="1200" height="630" fill="url(#g)"/><circle cx="600" cy="300" r="200" fill="none" stroke="#6db0e8" stroke-width="2.5" opacity="0.45"/><circle cx="600" cy="300" r="140" fill="none" stroke="#6db0e8" stroke-width="2" opacity="0.55"/><circle cx="600" cy="300" r="80" fill="none" stroke="#6db0e8" stroke-width="1.5" opacity="0.65"/><circle cx="600" cy="300" r="280" fill="none" stroke="#4a90c9" stroke-width="1.5" opacity="0.3"/><circle cx="600" cy="300" r="14" fill="#7ec0f5" opacity="0.8"/><circle cx="600" cy="300" r="30" fill="#7ec0f5" opacity="0.15"/><circle cx="380" cy="200" r="10" fill="#7ec0f5" opacity="0.7"/><circle cx="820" cy="400" r="10" fill="#7ec0f5" opacity="0.7"/><circle cx="450" cy="450" r="8" fill="#7ec0f5" opacity="0.6"/><circle cx="780" cy="180" r="8" fill="#7ec0f5" opacity="0.6"/><circle cx="250" cy="350" r="6" fill="#7ec0f5" opacity="0.55"/><circle cx="950" cy="250" r="6" fill="#7ec0f5" opacity="0.55"/><circle cx="200" cy="150" r="5" fill="#7ec0f5" opacity="0.45"/><circle cx="1000" cy="480" r="5" fill="#7ec0f5" opacity="0.45"/><line x1="600" y1="300" x2="380" y2="200" stroke="#6db0e8" stroke-width="2" opacity="0.45"/><line x1="600" y1="300" x2="820" y2="400" stroke="#6db0e8" stroke-width="2" opacity="0.45"/><line x1="600" y1="300" x2="450" y2="450" stroke="#6db0e8" stroke-width="1.5" opacity="0.4"/><line x1="600" y1="300" x2="780" y2="180" stroke="#6db0e8" stroke-width="1.5" opacity="0.4"/><line x1="380" y1="200" x2="250" y2="350" stroke="#6db0e8" stroke-width="1" opacity="0.35"/><line x1="820" y1="400" x2="950" y2="250" stroke="#6db0e8" stroke-width="1" opacity="0.35"/><line x1="250" y1="350" x2="200" y2="150" stroke="#6db0e8" stroke-width="0.8" opacity="0.3"/><line x1="950" y1="250" x2="1000" y2="480" stroke="#6db0e8" stroke-width="0.8" opacity="0.3"/><line x1="450" y1="450" x2="250" y2="350" stroke="#6db0e8" stroke-width="0.8" opacity="0.3"/><line x1="780" y1="180" x2="950" y2="250" stroke="#6db0e8" stroke-width="0.8" opacity="0.3"/></svg>