<svg xmlns="http://www.w3.org/2000/svg" viewBox="0 0 1200 630" width="1200" height="630">
  <defs>
    <linearGradient id="g2" x1="0%" y1="0%" x2="100%" y2="100%">
      <stop offset="0%" style="stop-color:#0f1923"/>
      <stop offset="100%" style="stop-color:#162435"/>
    </linearGradient>
  </defs>
  <rect width="1200" height="630" fill="url(#g2)"/>
  <circle cx="600" cy="300" r="200" fill="none" stroke="#5b9bd5" stroke-width="2" opacity="0.35"/>
  <circle cx="600" cy="300" r="140" fill="none" stroke="#5b9bd5" stroke-width="1.5" opacity="0.45"/>
  <circle cx="600" cy="300" r="80" fill="none" stroke="#5b9bd5" stroke-width="1" opacity="0.55"/>
  <circle cx="600" cy="300" r="280" fill="none" stroke="#3a7cc3" stroke-width="1" opacity="0.2"/>
  <circle cx="600" cy="300" r="12" fill="#5b9bd5" opacity="0.7"/>
  <circle cx="600" cy="300" r="25" fill="#5b9bd5" opacity="0.15"/>
  <circle cx="380" cy="200" r="8" fill="#5b9bd5" opacity="0.6"/>
  <circle cx="820" cy="400" r="8" fill="#5b9bd5" opacity="0.6"/>
  <circle cx="450" cy="450" r="7" fill="#5b9bd5" opacity="0.5"/>
  <circle cx="780" cy="180" r="7" fill="#5b9bd5" opacity="0.5"/>
  <circle cx="250" cy="350" r="5" fill="#5b9bd5" opacity="0.45"/>
  <circle cx="950" cy="250" r="5" fill="#5b9bd5" opacity="0.45"/>
  <circle cx="200" cy="150" r="4" fill="#5b9bd5" opacity="0.35"/>
  <circle cx="1000" cy="480" r="4" fill="#5b9bd5" opacity="0.35"/>
  <line x1="600" y1="300" x2="380" y2="200" stroke="#5b9bd5" stroke-width="1.5" opacity="0.35"/>
  <line x1="600" y1="300" x2="820" y2="400" stroke="#5b9bd5" stroke-width="1.5" opacity="0.35"/>
  <line x1="600" y1="300" x2="450" y2="450" stroke="#5b9bd5" stroke-width="1" opacity="0.3"/>
  <line x1="600" y1="300" x2="780" y2="180" stroke="#5b9bd5" stroke-width="1" opacity="0.3"/>
  <line x1="380" y1="200" x2="250" y2="350" stroke="#5b9bd5" stroke-width="0.8" opacity="0.25"/>
  <line x1="820" y1="400" x2="950" y2="250" stroke="#5b9bd5" stroke-width="0.8" opacity="0.25"/>
  <line x1="250" y1="350" x2="200" y2="150" stroke="#5b9bd5" stroke-width="0.5" opacity="0.2"/>
  <line x1="950" y1="250" x2="1000" y2="480" stroke="#5b9bd5" stroke-width="0.5" opacity="0.2"/>
  <line x1="450" y1="450" x2="250" y2="350" stroke="#5b9bd5" stroke-width="0.5" opacity="0.2"/>
  <line x1="780" y1="180" x2="950" y2="250" stroke="#5b9bd5" stroke-width="0.5" opacity="0.2"/>
  <line x1="300" y1="0" x2="300" y2="630" stroke="#5b9bd5" stroke-width="0.5" opacity="0.05"/>
  <line x1="600" y1="0" x2="600" y2="630" stroke="#5b9bd5" stroke-width="0.5" opacity="0.05"/>
  <line x1="900" y1="0" x2="900" y2="630" stroke="#5b9bd5" stroke-width="0.5" opacity="0.05"/>
  <line x1="0" y1="210" x2="1200" y2="210" stroke="#5b9bd5" stroke-width="0.5" opacity="0.05"/>
  <line x1="0" y1="420" x2="1200" y2="420" stroke="#5b9bd5" stroke-width="0.5" opacity="0.05"/>
</svg>